<svg xmlns="http://www.w3.org/2000/svg" xmlns:xlink="http://www.w3.org/1999/xlink" width="2140" zoomAndPan="magnify" viewBox="0 0 1604.88 315.749992" height="421" preserveAspectRatio="xMidYMid meet" version="1.0"><defs><clipPath id="1f6b6f9620"><path d="M 372 0 L 407.1875 0 L 407.1875 35 L 372 35 Z M 372 0 " clip-rule="nonzero"/></clipPath><clipPath id="ea43e88beb"><path d="M 241.570312 78 L 390 78 L 390 230.066406 L 241.570312 230.066406 Z M 241.570312 78 " clip-rule="nonzero"/></clipPath><clipPath id="2f0f64cc2f"><path d="M 352.476562 96.691406 L 582.546875 96.691406 L 582.546875 230 L 352.476562 230 Z M 352.476562 96.691406 " clip-rule="nonzero"/></clipPath><clipPath id="7dc5d5c024"><path d="M 567.015625 77.019531 L 797 77.019531 L 797 229.898438 L 567.015625 229.898438 Z M 567.015625 77.019531 " clip-rule="nonzero"/></clipPath><clipPath id="eaae2b163a"><path d="M 879.835938 12 L 1157.117188 12 L 1157.117188 241.996094 L 879.835938 241.996094 Z M 879.835938 12 " clip-rule="nonzero"/></clipPath><clipPath id="e4be7983c0"><path d="M 1108.472656 108.621094 L 1259.851562 108.621094 L 1259.851562 242 L 1108.472656 242 Z M 1108.472656 108.621094 " clip-rule="nonzero"/></clipPath><clipPath id="92079939c7"><path d="M 1232.582031 110.121094 L 1462.648438 110.121094 L 1462.648438 243.515625 L 1232.582031 243.515625 Z M 1232.582031 110.121094 " clip-rule="nonzero"/></clipPath><clipPath id="eac86420d0"><path d="M 1373.507812 108.621094 L 1603.574219 108.621094 L 1603.574219 314.707031 L 1373.507812 314.707031 Z M 1373.507812 108.621094 " clip-rule="nonzero"/></clipPath><clipPath id="a0fb9d7776"><path d="M 108 0 L 394.761719 0 L 394.761719 131 L 108 131 Z M 108 0 " clip-rule="nonzero"/></clipPath><clipPath id="065123a9d9"><path d="M 0.574219 54 L 276 54 L 276 259.292969 L 0.574219 259.292969 Z M 0.574219 54 " clip-rule="nonzero"/></clipPath></defs><g clip-path="url(#1f6b6f9620)"><path fill="#000000" d="M 403.589844 3.40625 L 403.589844 0 L 382.558594 0 L 382.558594 3.40625 L 379.148438 3.40625 L 379.148438 6.855469 L 375.6875 6.855469 L 375.6875 10.261719 L 372.273438 10.261719 L 372.273438 27.839844 L 375.6875 27.839844 L 375.6875 31.242188 L 379.148438 31.242188 L 379.148438 34.695312 L 393.304688 34.695312 L 393.304688 31.242188 L 400.175781 31.242188 L 400.175781 27.839844 L 403.589844 27.839844 L 403.589844 24.386719 L 407.050781 24.386719 L 407.050781 3.40625 Z M 403.589844 3.40625 " fill-opacity="1" fill-rule="nonzero"/></g><g clip-path="url(#ea43e88beb)"><path fill="#000000" d="M 382.558594 143.976562 L 379.148438 143.976562 L 379.148438 147.382812 L 375.6875 147.382812 L 375.6875 150.832031 L 372.273438 150.832031 L 372.273438 154.238281 L 368.816406 154.238281 L 368.816406 161.09375 L 365.402344 161.09375 L 365.402344 164.542969 L 361.945312 164.542969 L 361.945312 167.949219 L 358.53125 167.949219 L 358.53125 171.402344 L 355.070312 171.402344 L 355.070312 174.804688 L 351.660156 174.804688 L 351.660156 178.257812 L 348.199219 178.257812 L 348.199219 181.660156 L 344.789062 181.660156 L 344.789062 185.113281 L 341.328125 185.113281 L 341.328125 188.519531 L 334.457031 188.519531 L 334.457031 191.96875 L 331.042969 191.96875 L 331.042969 195.375 L 327.585938 195.375 L 327.585938 198.824219 L 324.171875 198.824219 L 324.171875 202.230469 L 320.710938 202.230469 L 320.710938 205.679688 L 313.839844 205.679688 L 313.839844 209.085938 L 310.429688 209.085938 L 310.429688 212.535156 L 303.554688 212.535156 L 303.554688 215.941406 L 296.683594 215.941406 L 296.683594 219.394531 L 289.8125 219.394531 L 289.8125 222.796875 L 279.480469 222.796875 L 279.480469 226.25 L 266.152344 226.25 L 266.152344 222.796875 L 259.28125 222.796875 L 259.28125 219.394531 L 255.867188 219.394531 L 255.867188 216.355469 L 259.28125 216.355469 L 259.28125 209.5 L 262.738281 209.5 L 262.738281 202.644531 L 266.152344 202.644531 L 266.152344 195.789062 L 269.613281 195.789062 L 269.613281 192.382812 L 273.023438 192.382812 L 273.023438 185.527344 L 276.484375 185.527344 L 276.484375 182.074219 L 279.894531 182.074219 L 279.894531 178.671875 L 283.355469 178.671875 L 283.355469 175.21875 L 286.769531 175.21875 L 286.769531 168.363281 L 290.226562 168.363281 L 290.226562 164.957031 L 293.640625 164.957031 L 293.640625 161.507812 L 297.097656 161.507812 L 297.097656 158.101562 L 300.511719 158.101562 L 300.511719 151.246094 L 303.972656 151.246094 L 303.972656 147.796875 L 307.382812 147.796875 L 307.382812 144.390625 L 310.84375 144.390625 L 310.84375 140.941406 L 314.253906 140.941406 L 314.253906 137.535156 L 317.714844 137.535156 L 317.714844 130.679688 L 321.128906 130.679688 L 321.128906 127.226562 L 324.585938 127.226562 L 324.585938 123.824219 L 328 123.824219 L 328 120.371094 L 331.457031 120.371094 L 331.457031 116.964844 L 334.871094 116.964844 L 334.871094 110.109375 L 338.332031 110.109375 L 338.332031 106.660156 L 341.742188 106.660156 L 341.742188 103.253906 L 345.203125 103.253906 L 345.203125 99.804688 L 348.613281 99.804688 L 348.613281 96.398438 L 352.074219 96.398438 L 352.074219 89.542969 L 355.488281 89.542969 L 355.488281 86.089844 L 358.945312 86.089844 L 358.945312 82.6875 L 362.359375 82.6875 L 362.359375 78.820312 L 331.042969 78.820312 L 331.042969 82.273438 L 327.585938 82.273438 L 327.585938 85.675781 L 324.171875 85.675781 L 324.171875 89.128906 L 320.710938 89.128906 L 320.710938 92.535156 L 317.300781 92.535156 L 317.300781 99.390625 L 313.839844 99.390625 L 313.839844 102.839844 L 310.429688 102.839844 L 310.429688 106.246094 L 306.96875 106.246094 L 306.96875 109.695312 L 303.554688 109.695312 L 303.554688 113.101562 L 300.097656 113.101562 L 300.097656 119.957031 L 296.683594 119.957031 L 296.683594 123.410156 L 293.226562 123.410156 L 293.226562 126.8125 L 289.8125 126.8125 L 289.8125 130.265625 L 286.351562 130.265625 L 286.351562 133.667969 L 282.941406 133.667969 L 282.941406 140.527344 L 279.480469 140.527344 L 279.480469 143.976562 L 276.070312 143.976562 L 276.070312 147.382812 L 272.609375 147.382812 L 272.609375 154.238281 L 269.195312 154.238281 L 269.195312 157.6875 L 265.738281 157.6875 L 265.738281 161.09375 L 262.324219 161.09375 L 262.324219 167.949219 L 258.867188 167.949219 L 258.867188 171.402344 L 255.453125 171.402344 L 255.453125 178.257812 L 251.992188 178.257812 L 251.992188 181.660156 L 248.582031 181.660156 L 248.582031 188.519531 L 245.121094 188.519531 L 245.121094 195.375 L 241.710938 195.375 L 241.710938 223.210938 L 245.121094 223.210938 L 245.121094 226.664062 L 251.992188 226.664062 L 251.992188 230.066406 L 286.769531 230.066406 L 286.769531 226.664062 L 297.097656 226.664062 L 297.097656 223.210938 L 303.972656 223.210938 L 303.972656 219.808594 L 310.84375 219.808594 L 310.84375 216.355469 L 314.253906 216.355469 L 314.253906 212.949219 L 321.128906 212.949219 L 321.128906 209.5 L 324.585938 209.5 L 324.585938 206.09375 L 331.457031 206.09375 L 331.457031 202.644531 L 334.871094 202.644531 L 334.871094 199.238281 L 338.332031 199.238281 L 338.332031 195.789062 L 341.742188 195.789062 L 341.742188 192.382812 L 345.203125 192.382812 L 345.203125 188.933594 L 348.613281 188.933594 L 348.613281 185.527344 L 352.074219 185.527344 L 352.074219 182.074219 L 355.488281 182.074219 L 355.488281 178.671875 L 358.945312 178.671875 L 358.945312 175.21875 L 362.359375 175.21875 L 362.359375 171.816406 L 365.816406 171.816406 L 365.816406 168.363281 L 369.230469 168.363281 L 369.230469 164.957031 L 372.691406 164.957031 L 372.691406 161.507812 L 376.101562 161.507812 L 376.101562 158.101562 L 379.5625 158.101562 L 379.5625 154.652344 L 382.972656 154.652344 L 382.972656 151.246094 L 386.433594 151.246094 L 386.433594 147.796875 L 389.847656 147.796875 L 389.847656 140.527344 L 382.558594 140.527344 Z M 382.558594 143.976562 " fill-opacity="1" fill-rule="nonzero"/></g><g clip-path="url(#2f0f64cc2f)"><path fill="#000000" d="M 575.859375 151.867188 L 575.859375 155.09375 L 572.632812 155.09375 L 572.632812 161.546875 L 569.40625 161.546875 L 569.40625 164.769531 L 566.179688 164.769531 L 566.179688 167.996094 L 562.953125 167.996094 L 562.953125 171.222656 L 559.726562 171.222656 L 559.726562 174.449219 L 556.5 174.449219 L 556.5 177.671875 L 553.273438 177.671875 L 553.273438 180.898438 L 550.046875 180.898438 L 550.046875 187.351562 L 546.820312 187.351562 L 546.820312 190.574219 L 540.367188 190.574219 L 540.367188 193.800781 L 537.140625 193.800781 L 537.140625 197.027344 L 533.914062 197.027344 L 533.914062 200.253906 L 530.6875 200.253906 L 530.6875 203.476562 L 527.460938 203.476562 L 527.460938 206.703125 L 524.234375 206.703125 L 524.234375 209.929688 L 517.78125 209.929688 L 517.78125 213.15625 L 511.324219 213.15625 L 511.324219 216.378906 L 508.097656 216.378906 L 508.097656 219.605469 L 498.371094 219.605469 L 498.371094 222.832031 L 473.113281 222.832031 L 473.113281 219.605469 L 469.886719 219.605469 L 469.886719 216.980469 L 473.113281 216.980469 L 473.113281 213.753906 L 476.339844 213.753906 L 476.339844 210.527344 L 479.566406 210.527344 L 479.566406 204.078125 L 482.792969 204.078125 L 482.792969 200.851562 L 486.019531 200.851562 L 486.019531 197.625 L 489.246094 197.625 L 489.246094 194.402344 L 492.472656 194.402344 L 492.472656 191.175781 L 495.699219 191.175781 L 495.699219 187.949219 L 498.925781 187.949219 L 498.925781 184.722656 L 502.152344 184.722656 L 502.152344 181.5 L 505.378906 181.5 L 505.378906 178.273438 L 508.605469 178.273438 L 508.605469 171.820312 L 511.832031 171.820312 L 511.832031 168.59375 L 515.058594 168.59375 L 515.058594 165.371094 L 518.285156 165.371094 L 518.285156 162.144531 L 521.511719 162.144531 L 521.511719 155.691406 L 524.738281 155.691406 L 524.738281 152.46875 L 527.96875 152.46875 L 527.96875 146.015625 L 531.195312 146.015625 L 531.195312 139.566406 L 534.421875 139.566406 L 534.421875 133.113281 L 537.648438 133.113281 L 537.648438 123.34375 L 540.875 123.34375 L 540.875 106.570312 L 537.648438 106.570312 L 537.648438 103.347656 L 534.421875 103.347656 L 534.421875 100.074219 L 531.195312 100.074219 L 531.195312 96.847656 L 504.6875 96.847656 L 504.6875 100.074219 L 494.914062 100.074219 L 494.914062 103.300781 L 488.460938 103.300781 L 488.460938 106.527344 L 485.234375 106.527344 L 485.234375 109.75 L 482.007812 109.75 L 482.007812 112.976562 L 475.554688 112.976562 L 475.554688 116.203125 L 472.328125 116.203125 L 472.328125 119.429688 L 469.101562 119.429688 L 469.101562 122.652344 L 465.875 122.652344 L 465.875 125.878906 L 462.648438 125.878906 L 462.648438 129.105469 L 459.421875 129.105469 L 459.421875 132.332031 L 456.195312 132.332031 L 456.195312 135.554688 L 452.96875 135.554688 L 452.96875 138.78125 L 449.742188 138.78125 L 449.742188 142.007812 L 446.515625 142.007812 L 446.515625 145.234375 L 443.289062 145.234375 L 443.289062 148.457031 L 440.0625 148.457031 L 440.0625 151.683594 L 436.835938 151.683594 L 436.835938 154.910156 L 433.605469 154.910156 L 433.605469 158.136719 L 430.378906 158.136719 L 430.378906 161.359375 L 427.152344 161.359375 L 427.152344 164.585938 L 423.925781 164.585938 L 423.925781 167.8125 L 420.699219 167.8125 L 420.699219 171.039062 L 417.472656 171.039062 L 417.472656 174.261719 L 414.246094 174.261719 L 414.246094 177.488281 L 411.621094 177.488281 L 411.621094 171.636719 L 414.847656 171.636719 L 414.847656 168.410156 L 418.074219 168.410156 L 418.074219 161.960938 L 421.300781 161.960938 L 421.300781 158.734375 L 424.527344 158.734375 L 424.527344 155.507812 L 427.753906 155.507812 L 427.753906 149.058594 L 430.980469 149.058594 L 430.980469 145.832031 L 434.207031 145.832031 L 434.207031 142.605469 L 437.433594 142.605469 L 437.433594 136.15625 L 440.660156 136.15625 L 440.660156 132.929688 L 443.886719 132.929688 L 443.886719 126.476562 L 447.113281 126.476562 L 447.113281 123.253906 L 450.339844 123.253906 L 450.339844 100.074219 L 447.113281 100.074219 L 447.113281 96.847656 L 427.0625 96.847656 L 427.0625 100.074219 L 420.609375 100.074219 L 420.609375 103.300781 L 417.382812 103.300781 L 417.382812 106.527344 L 414.15625 106.527344 L 414.15625 109.75 L 410.929688 109.75 L 410.929688 112.976562 L 407.699219 112.976562 L 407.699219 116.203125 L 404.472656 116.203125 L 404.472656 119.429688 L 401.246094 119.429688 L 401.246094 122.652344 L 398.019531 122.652344 L 398.019531 125.878906 L 394.792969 125.878906 L 394.792969 129.105469 L 391.566406 129.105469 L 391.566406 135.554688 L 388.339844 135.554688 L 388.339844 138.78125 L 385.113281 138.78125 L 385.113281 142.007812 L 381.886719 142.007812 L 381.886719 145.234375 L 378.660156 145.234375 L 378.660156 152.328125 L 385.757812 152.328125 L 385.757812 145.878906 L 388.984375 145.878906 L 388.984375 142.652344 L 392.210938 142.652344 L 392.210938 139.425781 L 395.4375 139.425781 L 395.4375 136.203125 L 398.667969 136.203125 L 398.667969 129.75 L 401.894531 129.75 L 401.894531 126.523438 L 405.121094 126.523438 L 405.121094 123.300781 L 408.347656 123.300781 L 408.347656 120.074219 L 411.574219 120.074219 L 411.574219 116.847656 L 414.800781 116.847656 L 414.800781 113.621094 L 418.027344 113.621094 L 418.027344 110.394531 L 421.253906 110.394531 L 421.253906 107.171875 L 424.480469 107.171875 L 424.480469 103.945312 L 433.5625 103.945312 L 433.5625 113.023438 L 430.335938 113.023438 L 430.335938 116.25 L 427.109375 116.25 L 427.109375 122.699219 L 423.882812 122.699219 L 423.882812 125.925781 L 420.652344 125.925781 L 420.652344 132.375 L 417.425781 132.375 L 417.425781 135.601562 L 414.199219 135.601562 L 414.199219 142.054688 L 410.972656 142.054688 L 410.972656 145.277344 L 407.746094 145.277344 L 407.746094 148.503906 L 404.519531 148.503906 L 404.519531 154.957031 L 401.292969 154.957031 L 401.292969 158.179688 L 398.066406 158.179688 L 398.066406 164.632812 L 394.839844 164.632812 L 394.839844 167.859375 L 391.613281 167.859375 L 391.613281 174.308594 L 388.386719 174.308594 L 388.386719 177.535156 L 385.160156 177.535156 L 385.160156 180.761719 L 381.933594 180.761719 L 381.933594 187.210938 L 378.707031 187.210938 L 378.707031 190.4375 L 375.480469 190.4375 L 375.480469 196.890625 L 372.253906 196.890625 L 372.253906 200.113281 L 369.027344 200.113281 L 369.027344 206.566406 L 365.800781 206.566406 L 365.800781 209.792969 L 362.574219 209.792969 L 362.574219 213.015625 L 359.347656 213.015625 L 359.347656 219.46875 L 355.703125 219.46875 L 355.703125 222.695312 L 352.476562 222.695312 L 352.476562 226.566406 L 359.578125 226.566406 L 359.578125 223.339844 L 385.484375 223.339844 L 385.484375 220.113281 L 388.710938 220.113281 L 388.710938 216.886719 L 391.9375 216.886719 L 391.9375 210.4375 L 395.164062 210.4375 L 395.164062 207.210938 L 398.390625 207.210938 L 398.390625 203.984375 L 401.617188 203.984375 L 401.617188 200.757812 L 404.84375 200.757812 L 404.84375 194.308594 L 408.070312 194.308594 L 408.070312 191.082031 L 411.296875 191.082031 L 411.296875 187.855469 L 414.523438 187.855469 L 414.523438 184.632812 L 417.75 184.632812 L 417.75 181.40625 L 420.976562 181.40625 L 420.976562 174.953125 L 424.203125 174.953125 L 424.203125 171.730469 L 427.429688 171.730469 L 427.429688 168.503906 L 430.65625 168.503906 L 430.65625 165.277344 L 433.882812 165.277344 L 433.882812 162.050781 L 437.109375 162.050781 L 437.109375 158.828125 L 440.335938 158.828125 L 440.335938 155.601562 L 443.5625 155.601562 L 443.5625 152.375 L 446.789062 152.375 L 446.789062 149.148438 L 450.019531 149.148438 L 450.019531 145.925781 L 453.246094 145.925781 L 453.246094 142.699219 L 456.472656 142.699219 L 456.472656 139.472656 L 459.699219 139.472656 L 459.699219 136.246094 L 462.925781 136.246094 L 462.925781 133.023438 L 466.152344 133.023438 L 466.152344 129.796875 L 469.378906 129.796875 L 469.378906 126.570312 L 472.605469 126.570312 L 472.605469 123.34375 L 479.058594 123.34375 L 479.058594 120.121094 L 482.285156 120.121094 L 482.285156 116.894531 L 485.511719 116.894531 L 485.511719 113.667969 L 491.964844 113.667969 L 491.964844 110.441406 L 495.191406 110.441406 L 495.191406 107.21875 L 501.644531 107.21875 L 501.644531 103.992188 L 508.097656 103.992188 L 508.097656 100.765625 L 520.453125 100.765625 L 520.453125 103.992188 L 523.679688 103.992188 L 523.679688 116.339844 L 520.453125 116.339844 L 520.453125 122.792969 L 517.226562 122.792969 L 517.226562 126.019531 L 514 126.019531 L 514 129.242188 L 510.773438 129.242188 L 510.773438 135.695312 L 507.546875 135.695312 L 507.546875 138.921875 L 504.320312 138.921875 L 504.320312 142.144531 L 501.09375 142.144531 L 501.09375 145.371094 L 497.867188 145.371094 L 497.867188 148.597656 L 494.640625 148.597656 L 494.640625 151.824219 L 491.414062 151.824219 L 491.414062 158.273438 L 488.183594 158.273438 L 488.183594 161.5 L 484.957031 161.5 L 484.957031 164.726562 L 481.730469 164.726562 L 481.730469 167.949219 L 478.503906 167.949219 L 478.503906 171.175781 L 475.277344 171.175781 L 475.277344 177.628906 L 472.050781 177.628906 L 472.050781 180.851562 L 468.824219 180.851562 L 468.824219 184.078125 L 465.597656 184.078125 L 465.597656 190.53125 L 462.371094 190.53125 L 462.371094 196.980469 L 459.144531 196.980469 L 459.144531 206.703125 L 455.917969 206.703125 L 455.917969 220.25 L 459.144531 220.25 L 459.144531 223.476562 L 462.371094 223.476562 L 462.371094 226.703125 L 472.097656 226.703125 L 472.097656 229.929688 L 495.375 229.929688 L 495.375 226.703125 L 505.101562 226.703125 L 505.101562 223.476562 L 511.554688 223.476562 L 511.554688 220.25 L 518.011719 220.25 L 518.011719 217.027344 L 521.238281 217.027344 L 521.238281 213.800781 L 527.691406 213.800781 L 527.691406 210.574219 L 530.917969 210.574219 L 530.917969 207.347656 L 534.144531 207.347656 L 534.144531 204.125 L 540.597656 204.125 L 540.597656 200.898438 L 543.824219 200.898438 L 543.824219 197.671875 L 547.050781 197.671875 L 547.050781 194.445312 L 550.277344 194.445312 L 550.277344 191.222656 L 553.503906 191.222656 L 553.503906 187.996094 L 556.730469 187.996094 L 556.730469 184.769531 L 559.957031 184.769531 L 559.957031 181.542969 L 563.183594 181.542969 L 563.183594 178.320312 L 566.410156 178.320312 L 566.410156 171.867188 L 569.636719 171.867188 L 569.636719 168.640625 L 572.863281 168.640625 L 572.863281 165.417969 L 576.089844 165.417969 L 576.089844 162.191406 L 579.320312 162.191406 L 579.320312 158.964844 L 582.546875 158.964844 L 582.546875 151.867188 Z M 404.289062 184.863281 L 404.289062 187.488281 L 401.664062 187.488281 L 401.664062 184.863281 Z M 407.515625 181.589844 L 407.515625 184.21875 L 404.890625 184.21875 L 404.890625 181.589844 Z M 408.117188 180.992188 L 408.117188 178.363281 L 410.742188 178.363281 L 410.742188 180.992188 Z M 408.117188 180.992188 " fill-opacity="1" fill-rule="nonzero"/></g><path fill="#000000" d="M 773.921875 80.824219 L 777.734375 80.824219 L 777.734375 84.632812 L 773.921875 84.632812 Z M 773.921875 80.824219 " fill-opacity="1" fill-rule="nonzero"/><g clip-path="url(#7dc5d5c024)"><path fill="#000000" d="M 789.21875 142.011719 L 789.21875 145.820312 L 785.40625 145.820312 L 785.40625 149.628906 L 781.59375 149.628906 L 781.59375 153.433594 L 777.78125 153.433594 L 777.78125 157.242188 L 773.921875 157.242188 L 773.921875 161.050781 L 770.109375 161.050781 L 770.109375 164.855469 L 766.296875 164.855469 L 766.296875 168.664062 L 762.4375 168.664062 L 762.4375 172.46875 L 758.625 172.46875 L 758.625 176.277344 L 754.8125 176.277344 L 754.8125 180.085938 L 750.953125 180.085938 L 750.953125 183.890625 L 747.140625 183.890625 L 747.140625 187.699219 L 743.328125 187.699219 L 743.328125 191.503906 L 739.46875 191.503906 L 739.46875 195.3125 L 735.65625 195.3125 L 735.65625 199.121094 L 731.84375 199.121094 L 731.84375 202.925781 L 724.175781 202.925781 L 724.175781 206.734375 L 720.359375 206.734375 L 720.359375 210.539062 L 716.503906 210.539062 L 716.503906 214.347656 L 708.832031 214.347656 L 708.832031 218.15625 L 701.160156 218.15625 L 701.160156 221.960938 L 689.675781 221.960938 L 689.675781 225.769531 L 678.191406 225.769531 L 678.191406 221.960938 L 674.378906 221.960938 L 674.378906 206.6875 L 678.191406 206.6875 L 678.191406 199.027344 L 682.003906 199.027344 L 682.003906 195.222656 L 685.816406 195.222656 L 685.816406 187.5625 L 689.628906 187.5625 L 689.628906 183.753906 L 693.441406 183.753906 L 693.441406 180.222656 L 697.257812 180.222656 L 697.257812 176.414062 L 701.070312 176.414062 L 701.070312 168.753906 L 704.882812 168.753906 L 704.882812 164.949219 L 708.695312 164.949219 L 708.695312 161.140625 L 712.507812 161.140625 L 712.507812 157.289062 L 716.320312 157.289062 L 716.320312 153.480469 L 720.132812 153.480469 L 720.132812 145.820312 L 723.945312 145.820312 L 723.945312 142.011719 L 727.757812 142.011719 L 727.757812 138.207031 L 731.570312 138.207031 L 731.570312 134.355469 L 735.382812 134.355469 L 735.382812 130.546875 L 739.195312 130.546875 L 739.195312 122.886719 L 743.007812 122.886719 L 743.007812 119.078125 L 746.820312 119.078125 L 746.820312 115.273438 L 750.632812 115.273438 L 750.632812 111.417969 L 754.445312 111.417969 L 754.445312 107.613281 L 758.257812 107.613281 L 758.257812 99.953125 L 762.070312 99.953125 L 762.070312 96.144531 L 765.882812 96.144531 L 765.882812 92.339844 L 769.695312 92.339844 L 769.695312 88.484375 L 773.507812 88.484375 L 773.507812 84.679688 L 754.351562 84.679688 L 754.351562 80.824219 L 742.871094 80.824219 L 742.871094 88.484375 L 739.46875 88.484375 L 739.46875 92.292969 L 735.65625 92.292969 L 735.65625 96.097656 L 731.84375 96.097656 L 731.84375 99.953125 L 727.988281 99.953125 L 727.988281 88.484375 L 724.175781 88.484375 L 724.175781 84.679688 L 720.359375 84.679688 L 720.359375 80.824219 L 712.691406 80.824219 L 712.691406 77.019531 L 678.238281 77.019531 L 678.238281 80.824219 L 662.941406 80.824219 L 662.941406 84.632812 L 655.269531 84.632812 L 655.269531 88.484375 L 643.789062 88.484375 L 643.789062 92.292969 L 639.976562 92.292969 L 639.976562 96.097656 L 632.304688 96.097656 L 632.304688 99.953125 L 628.492188 99.953125 L 628.492188 103.757812 L 620.820312 103.757812 L 620.820312 107.566406 L 617.007812 107.566406 L 617.007812 111.417969 L 613.148438 111.417969 L 613.148438 115.226562 L 609.335938 115.226562 L 609.335938 119.035156 L 605.523438 119.035156 L 605.523438 122.839844 L 601.664062 122.839844 L 601.664062 126.648438 L 597.851562 126.648438 L 597.851562 130.453125 L 594.039062 130.453125 L 594.039062 134.261719 L 590.179688 134.261719 L 590.179688 141.921875 L 586.367188 141.921875 L 586.367188 145.730469 L 582.554688 145.730469 L 582.554688 149.535156 L 578.699219 149.535156 L 578.699219 157.289062 L 574.886719 157.289062 L 574.886719 164.949219 L 571.027344 164.949219 L 571.027344 176.414062 L 567.214844 176.414062 L 567.214844 218.476562 L 571.027344 218.476562 L 571.027344 226.089844 L 578.699219 226.089844 L 578.699219 229.898438 L 605.476562 229.898438 L 605.476562 226.089844 L 616.960938 226.089844 L 616.960938 222.28125 L 624.632812 222.28125 L 624.632812 218.476562 L 632.304688 218.476562 L 632.304688 214.625 L 636.117188 214.625 L 636.117188 210.816406 L 639.929688 210.816406 L 639.929688 207.007812 L 647.601562 207.007812 L 647.601562 203.15625 L 651.414062 203.15625 L 651.414062 199.347656 L 655.226562 199.347656 L 655.226562 195.542969 L 659.039062 195.542969 L 659.039062 191.6875 L 662.851562 191.6875 L 662.851562 187.882812 L 666.664062 187.882812 L 666.664062 184.074219 L 670.476562 184.074219 L 670.476562 180.222656 L 674.289062 180.222656 L 674.289062 184.027344 L 670.566406 184.027344 L 670.566406 187.835938 L 666.753906 187.835938 L 666.753906 191.644531 L 662.941406 191.644531 L 662.941406 199.304688 L 659.082031 199.304688 L 659.082031 206.964844 L 655.269531 206.964844 L 655.269531 226.089844 L 662.941406 226.089844 L 662.941406 229.898438 L 693.535156 229.898438 L 693.535156 226.089844 L 705.019531 226.089844 L 705.019531 222.28125 L 712.691406 222.28125 L 712.691406 218.476562 L 720.359375 218.476562 L 720.359375 214.625 L 724.175781 214.625 L 724.175781 210.816406 L 731.84375 210.816406 L 731.84375 207.007812 L 735.65625 207.007812 L 735.65625 203.15625 L 739.46875 203.15625 L 739.46875 199.347656 L 743.28125 199.347656 L 743.28125 195.542969 L 750.953125 195.542969 L 750.953125 191.6875 L 754.765625 191.6875 L 754.765625 187.882812 L 758.578125 187.882812 L 758.578125 184.074219 L 762.390625 184.074219 L 762.390625 180.222656 L 766.203125 180.222656 L 766.203125 176.414062 L 770.015625 176.414062 L 770.015625 172.609375 L 773.828125 172.609375 L 773.828125 168.753906 L 777.640625 168.753906 L 777.640625 161.09375 L 781.453125 161.09375 L 781.453125 157.289062 L 785.265625 157.289062 L 785.265625 153.480469 L 789.078125 153.480469 L 789.078125 149.671875 L 792.894531 149.671875 L 792.894531 145.820312 L 796.707031 145.820312 L 796.707031 142.011719 C 796.890625 142.011719 789.21875 142.011719 789.21875 142.011719 Z M 670.566406 168.753906 L 670.566406 172.5625 L 666.753906 172.5625 L 666.753906 176.367188 L 662.941406 176.367188 L 662.941406 180.175781 L 659.082031 180.175781 L 659.082031 183.984375 L 655.269531 183.984375 L 655.269531 187.789062 L 651.457031 187.789062 L 651.457031 191.597656 L 647.601562 191.597656 L 647.601562 195.402344 L 643.789062 195.402344 L 643.789062 199.210938 L 639.976562 199.210938 L 639.976562 203.019531 L 636.117188 203.019531 L 636.117188 206.824219 L 628.445312 206.824219 L 628.445312 210.632812 L 624.632812 210.632812 L 624.632812 214.441406 L 616.960938 214.441406 L 616.960938 218.246094 L 609.335938 218.246094 L 609.335938 222.054688 L 597.851562 222.054688 L 597.851562 225.859375 L 590.179688 225.859375 L 590.179688 222.054688 L 586.367188 222.054688 L 586.367188 218.246094 L 582.554688 218.246094 L 582.554688 203.15625 L 586.367188 203.15625 L 586.367188 191.6875 L 590.179688 191.6875 L 590.179688 184.027344 L 593.992188 184.027344 L 593.992188 176.367188 L 597.804688 176.367188 L 597.804688 172.5625 L 601.664062 172.5625 L 601.664062 164.902344 L 605.476562 164.902344 L 605.476562 161.09375 L 609.289062 161.09375 L 609.289062 157.289062 L 613.101562 157.289062 L 613.101562 149.628906 L 616.914062 149.628906 L 616.914062 145.820312 L 620.726562 145.820312 L 620.726562 142.011719 L 624.539062 142.011719 L 624.539062 138.207031 L 628.351562 138.207031 L 628.351562 134.355469 L 632.164062 134.355469 L 632.164062 130.546875 L 635.980469 130.546875 L 635.980469 126.738281 L 639.792969 126.738281 L 639.792969 122.886719 L 643.605469 122.886719 L 643.605469 119.078125 L 647.417969 119.078125 L 647.417969 115.273438 L 651.230469 115.273438 L 651.230469 111.417969 L 655.042969 111.417969 L 655.042969 107.613281 L 658.855469 107.613281 L 658.855469 103.804688 L 666.523438 103.804688 L 666.523438 99.953125 L 670.339844 99.953125 L 670.339844 96.144531 L 674.152344 96.144531 L 674.152344 92.339844 L 682.050781 92.339844 L 682.050781 88.484375 L 689.722656 88.484375 L 689.722656 84.679688 L 701.207031 84.679688 L 701.207031 80.824219 L 708.878906 80.824219 L 708.878906 84.632812 L 716.503906 84.632812 L 716.503906 88.484375 L 720.316406 88.484375 L 720.316406 107.613281 L 716.503906 107.613281 L 716.503906 115.273438 L 712.691406 115.273438 L 712.691406 122.886719 L 708.878906 122.886719 L 708.878906 130.546875 L 705.019531 130.546875 L 705.019531 134.355469 L 701.207031 134.355469 L 701.207031 138.160156 L 697.394531 138.160156 L 697.394531 141.96875 L 693.535156 141.96875 L 693.535156 145.773438 L 689.722656 145.773438 L 689.722656 153.433594 L 685.910156 153.433594 L 685.910156 157.242188 L 682.050781 157.242188 L 682.050781 161.050781 L 678.238281 161.050781 L 678.238281 164.855469 L 674.425781 164.855469 L 674.425781 168.664062 C 674.378906 168.753906 670.566406 168.753906 670.566406 168.753906 Z M 670.566406 168.753906 " fill-opacity="1" fill-rule="nonzero"/></g><g clip-path="url(#eaae2b163a)"><path fill="#000000" d="M 1148.855469 12.136719 L 1148.855469 16.015625 L 1141.035156 16.015625 L 1141.035156 19.890625 L 1137.152344 19.890625 L 1137.152344 23.765625 L 1125.453125 23.765625 L 1125.453125 27.644531 L 1094.730469 27.644531 L 1094.730469 23.765625 L 1079.144531 23.765625 L 1079.144531 19.890625 L 1067.445312 19.890625 L 1067.445312 16.015625 L 1047.921875 16.015625 L 1047.921875 12.136719 L 1004.613281 12.136719 L 1004.613281 16.015625 L 992.910156 16.015625 L 992.910156 19.890625 L 985.09375 19.890625 L 985.09375 23.765625 L 981.210938 23.765625 L 981.210938 27.644531 L 973.390625 27.644531 L 973.390625 31.519531 L 969.507812 31.519531 L 969.507812 35.394531 L 965.628906 35.394531 L 965.628906 39.273438 L 961.746094 39.273438 L 961.746094 43.148438 L 957.863281 43.148438 L 957.863281 47.027344 L 953.980469 47.027344 L 953.980469 54.832031 L 950.097656 54.832031 L 950.097656 62.640625 L 946.21875 62.640625 L 946.21875 74.328125 L 942.335938 74.328125 L 942.335938 86.453125 L 946.21875 86.453125 L 946.21875 94.261719 L 950.097656 94.261719 L 950.097656 98.140625 L 953.980469 98.140625 L 953.980469 102.015625 L 961.800781 102.015625 L 961.800781 105.890625 L 973.945312 105.890625 L 973.945312 102.015625 L 989.527344 102.015625 L 989.527344 98.140625 L 997.347656 98.140625 L 997.347656 94.261719 L 1001.230469 94.261719 L 1001.230469 90.386719 L 1005.113281 90.386719 L 1005.113281 86.511719 L 1008.992188 86.511719 L 1008.992188 82.632812 L 1012.875 82.632812 L 1012.875 78.757812 L 1016.757812 78.757812 L 1016.757812 70.949219 L 1020.640625 70.949219 L 1020.640625 63.195312 L 1024.519531 63.195312 L 1024.519531 39.382812 L 1016.257812 39.382812 L 1016.257812 54.945312 L 1012.375 54.945312 L 1012.375 62.753906 L 1008.496094 62.753906 L 1008.496094 70.5625 L 1004.613281 70.5625 L 1004.613281 74.4375 L 1000.730469 74.4375 L 1000.730469 78.3125 L 996.847656 78.3125 L 996.847656 82.191406 L 992.96875 82.191406 L 992.96875 86.066406 L 989.085938 86.066406 L 989.085938 89.941406 L 985.203125 89.941406 L 985.203125 93.820312 L 977.382812 93.820312 L 977.382812 97.695312 L 958.308594 97.695312 L 958.308594 93.820312 L 954.425781 93.820312 L 954.425781 89.941406 L 950.542969 89.941406 L 950.542969 67.074219 L 954.425781 67.074219 L 954.425781 59.320312 L 958.308594 59.320312 L 958.308594 51.511719 L 962.1875 51.511719 L 962.1875 47.632812 L 966.070312 47.632812 L 966.070312 43.757812 L 969.953125 43.757812 L 969.953125 39.882812 L 977.773438 39.882812 L 977.773438 36.003906 L 981.652344 36.003906 L 981.652344 32.128906 L 993.355469 32.128906 L 993.355469 28.253906 L 1035.777344 28.253906 L 1035.777344 32.128906 L 1051.363281 32.128906 L 1051.363281 36.003906 L 1063.0625 36.003906 L 1063.0625 39.882812 L 1110.3125 39.882812 L 1110.3125 36.003906 L 1117.6875 36.003906 L 1117.6875 39.4375 L 1113.804688 39.4375 L 1113.804688 43.316406 L 1105.988281 43.316406 L 1105.988281 47.191406 L 1102.105469 47.191406 L 1102.105469 51.066406 L 1098.222656 51.066406 L 1098.222656 54.945312 L 1094.339844 54.945312 L 1094.339844 58.820312 L 1090.457031 58.820312 L 1090.457031 62.699219 L 1086.578125 62.699219 L 1086.578125 66.574219 L 1082.695312 66.574219 L 1082.695312 70.449219 L 1078.8125 70.449219 L 1078.8125 74.328125 L 1074.929688 74.328125 L 1074.929688 78.203125 L 1071.050781 78.203125 L 1071.050781 82.078125 L 1067.167969 82.078125 L 1067.167969 85.957031 L 1063.285156 85.957031 L 1063.285156 89.832031 L 1059.402344 89.832031 L 1059.402344 93.710938 L 1055.519531 93.710938 L 1055.519531 97.585938 L 1051.640625 97.585938 L 1051.640625 101.460938 L 1047.757812 101.460938 L 1047.757812 109.269531 L 1043.875 109.269531 L 1043.875 113.148438 L 1039.992188 113.148438 L 1039.992188 117.023438 L 1036.113281 117.023438 L 1036.113281 124.832031 L 1032.230469 124.832031 L 1032.230469 128.707031 L 1028.347656 128.707031 L 1028.347656 132.585938 L 1024.464844 132.585938 L 1024.464844 136.460938 L 1020.582031 136.460938 L 1020.582031 144.269531 L 1016.703125 144.269531 L 1016.703125 148.144531 L 1012.820312 148.144531 L 1012.820312 155.953125 L 1008.9375 155.953125 L 1008.9375 159.832031 L 1005.054688 159.832031 L 1005.054688 163.707031 L 1001.175781 163.707031 L 1001.175781 167.582031 L 997.292969 167.582031 L 997.292969 175.390625 L 993.410156 175.390625 L 993.410156 179.269531 L 989.527344 179.269531 L 989.527344 183.144531 L 985.648438 183.144531 L 985.648438 187.019531 L 981.765625 187.019531 L 981.765625 190.898438 L 977.882812 190.898438 L 977.882812 194.773438 L 974 194.773438 L 974 198.648438 L 970.117188 198.648438 L 970.117188 202.527344 L 966.238281 202.527344 L 966.238281 206.402344 L 954.980469 206.402344 L 954.980469 202.527344 L 930.96875 202.527344 L 930.96875 198.648438 L 911.003906 198.648438 L 911.003906 202.527344 L 895.417969 202.527344 L 895.417969 206.402344 L 887.65625 206.402344 L 887.65625 210.277344 L 883.71875 210.277344 L 883.71875 214.15625 L 879.835938 214.15625 L 879.835938 222.40625 L 883.71875 222.40625 L 883.71875 226.285156 L 887.601562 226.285156 L 887.601562 230.160156 L 899.300781 230.160156 L 899.300781 234.035156 L 930.96875 234.035156 L 930.96875 230.160156 L 946.550781 230.160156 L 946.550781 226.285156 L 954.371094 226.285156 L 954.371094 222.40625 L 962.1875 222.40625 L 962.1875 218.53125 L 969.5625 218.53125 L 969.5625 222.40625 L 977.382812 222.40625 L 977.382812 226.285156 L 989.085938 226.285156 L 989.085938 230.160156 L 1000.730469 230.160156 L 1000.730469 234.035156 L 1012.433594 234.035156 L 1012.433594 237.914062 L 1028.015625 237.914062 L 1028.015625 241.789062 L 1059.679688 241.789062 L 1059.679688 237.914062 L 1075.261719 237.914062 L 1075.261719 234.035156 L 1083.082031 234.035156 L 1083.082031 230.160156 L 1090.902344 230.160156 L 1090.902344 226.285156 L 1094.785156 226.285156 L 1094.785156 222.40625 L 1098.667969 222.40625 L 1098.667969 218.53125 L 1102.546875 218.53125 L 1102.546875 214.652344 L 1106.429688 214.652344 L 1106.429688 210.777344 L 1110.3125 210.777344 L 1110.3125 199.09375 L 1114.195312 199.09375 L 1114.195312 179.15625 L 1110.3125 179.15625 L 1110.3125 171.347656 L 1106.429688 171.347656 L 1106.429688 167.472656 L 1102.546875 167.472656 L 1102.546875 163.597656 L 1098.667969 163.597656 L 1098.667969 159.71875 L 1086.964844 159.71875 L 1086.964844 155.84375 L 1078.703125 155.84375 L 1078.703125 159.71875 L 1070.882812 159.71875 L 1070.882812 163.597656 L 1067 163.597656 L 1067 167.914062 L 1070.882812 167.914062 L 1070.882812 171.792969 L 1074.765625 171.792969 L 1074.765625 175.667969 L 1083.027344 175.667969 L 1083.027344 171.792969 L 1086.910156 171.792969 L 1086.910156 167.914062 L 1090.792969 167.914062 L 1090.792969 164.039062 L 1094.230469 164.039062 L 1094.230469 167.914062 L 1098.113281 167.914062 L 1098.113281 171.792969 L 1101.992188 171.792969 L 1101.992188 175.667969 L 1105.875 175.667969 L 1105.875 202.472656 L 1101.992188 202.472656 L 1101.992188 206.347656 L 1098.113281 206.347656 L 1098.113281 210.222656 L 1094.230469 210.222656 L 1094.230469 214.101562 L 1086.410156 214.101562 L 1086.410156 217.976562 L 1078.589844 217.976562 L 1078.589844 221.851562 L 1012.875 221.851562 L 1012.875 217.976562 L 997.292969 217.976562 L 997.292969 214.101562 L 981.710938 214.101562 L 981.710938 206.734375 L 985.589844 206.734375 L 985.589844 202.859375 L 993.410156 202.859375 L 993.410156 198.980469 L 997.292969 198.980469 L 997.292969 195.105469 L 1001.175781 195.105469 L 1001.175781 191.230469 L 1005.054688 191.230469 L 1005.054688 187.351562 L 1008.9375 187.351562 L 1008.9375 183.476562 L 1012.820312 183.476562 L 1012.820312 179.601562 L 1016.703125 179.601562 L 1016.703125 175.722656 L 1020.582031 175.722656 L 1020.582031 171.847656 L 1024.464844 171.847656 L 1024.464844 167.96875 L 1028.347656 167.96875 L 1028.347656 164.09375 L 1032.230469 164.09375 L 1032.230469 160.21875 L 1036.113281 160.21875 L 1036.113281 152.410156 L 1039.992188 152.410156 L 1039.992188 148.53125 L 1043.875 148.53125 L 1043.875 144.65625 L 1047.757812 144.65625 L 1047.757812 140.78125 L 1051.640625 140.78125 L 1051.640625 132.972656 L 1055.519531 132.972656 L 1055.519531 129.09375 L 1059.402344 129.09375 L 1059.402344 121.289062 L 1063.285156 121.289062 L 1063.285156 117.410156 L 1067.167969 117.410156 L 1067.167969 109.601562 L 1071.050781 109.601562 L 1071.050781 105.726562 L 1074.929688 105.726562 L 1074.929688 101.847656 L 1078.8125 101.847656 L 1078.8125 94.042969 L 1082.695312 94.042969 L 1082.695312 90.164062 L 1086.578125 90.164062 L 1086.578125 82.355469 L 1090.457031 82.355469 L 1090.457031 78.480469 L 1094.339844 78.480469 L 1094.339844 74.605469 L 1098.222656 74.605469 L 1098.222656 67.074219 L 1102.105469 67.074219 L 1102.105469 63.195312 L 1105.984375 63.195312 L 1105.984375 59.320312 L 1109.867188 59.320312 L 1109.867188 55.441406 L 1113.75 55.441406 L 1113.75 51.566406 L 1117.632812 51.566406 L 1117.632812 47.691406 L 1121.515625 47.691406 L 1121.515625 39.828125 L 1125.394531 39.828125 L 1125.394531 35.949219 L 1129.277344 35.949219 L 1129.277344 32.074219 L 1133.160156 32.074219 L 1133.160156 28.195312 L 1140.980469 28.195312 L 1140.980469 24.320312 L 1144.859375 24.320312 L 1144.859375 20.445312 L 1153.234375 20.445312 L 1153.234375 16.566406 L 1157.117188 16.566406 L 1157.117188 12.136719 Z M 888.097656 222.40625 L 888.097656 215.042969 L 891.980469 215.042969 L 891.980469 211.164062 L 903.683594 211.164062 L 903.683594 207.289062 L 926.640625 207.289062 L 926.640625 211.164062 L 946.160156 211.164062 L 946.160156 215.042969 L 950.042969 215.042969 L 950.042969 218.476562 L 946.160156 218.476562 L 946.160156 222.351562 L 934.40625 222.351562 L 934.40625 226.226562 L 891.980469 226.226562 L 891.980469 222.351562 L 888.097656 222.351562 Z M 888.097656 222.40625 " fill-opacity="1" fill-rule="nonzero"/></g><g clip-path="url(#e4be7983c0)"><path fill="#000000" d="M 1254.3125 163.402344 L 1254.3125 166.011719 L 1251.710938 166.011719 L 1251.710938 168.617188 L 1249.105469 168.617188 L 1249.105469 173.832031 L 1246.5 173.832031 L 1246.5 176.441406 L 1243.898438 176.441406 L 1243.898438 179.046875 L 1241.292969 179.046875 L 1241.292969 181.65625 L 1238.691406 181.65625 L 1238.691406 184.261719 L 1236.085938 184.261719 L 1236.085938 186.867188 L 1233.484375 186.867188 L 1233.484375 189.476562 L 1230.878906 189.476562 L 1230.878906 192.082031 L 1228.277344 192.082031 L 1228.277344 194.691406 L 1225.671875 194.691406 L 1225.671875 197.296875 L 1223.066406 197.296875 L 1223.066406 199.90625 L 1220.464844 199.90625 L 1220.464844 202.511719 L 1217.859375 202.511719 L 1217.859375 205.121094 L 1215.257812 205.121094 L 1215.257812 207.726562 L 1212.652344 207.726562 L 1212.652344 210.335938 L 1210.050781 210.335938 L 1210.050781 212.941406 L 1204.84375 212.941406 L 1204.84375 215.546875 L 1202.238281 215.546875 L 1202.238281 218.15625 L 1197.03125 218.15625 L 1197.03125 220.761719 L 1194.425781 220.761719 L 1194.425781 223.371094 L 1189.21875 223.371094 L 1189.21875 225.976562 L 1184.011719 225.976562 L 1184.011719 228.585938 L 1176.199219 228.585938 L 1176.199219 231.191406 L 1170.992188 231.191406 L 1170.992188 233.800781 L 1160.546875 233.800781 L 1160.546875 236.40625 L 1140.050781 236.40625 L 1140.050781 233.800781 L 1134.84375 233.800781 L 1134.84375 231.191406 L 1129.636719 231.191406 L 1129.636719 225.976562 L 1127.03125 225.976562 L 1127.03125 218.15625 L 1124.429688 218.15625 L 1124.429688 210.667969 L 1127.03125 210.667969 L 1127.03125 200.238281 L 1129.636719 200.238281 L 1129.636719 195.054688 L 1132.238281 195.054688 L 1132.238281 189.839844 L 1134.84375 189.839844 L 1134.84375 184.625 L 1140.050781 184.625 L 1140.050781 182.019531 L 1147.863281 182.019531 L 1147.863281 179.410156 L 1155.671875 179.410156 L 1155.671875 176.804688 L 1160.882812 176.804688 L 1160.882812 174.195312 L 1168.722656 174.195312 L 1168.722656 171.589844 L 1173.929688 171.589844 L 1173.929688 168.980469 L 1181.742188 168.980469 L 1181.742188 166.375 L 1186.949219 166.375 L 1186.949219 163.765625 L 1192.15625 163.765625 L 1192.15625 161.160156 L 1197.363281 161.160156 L 1197.363281 158.554688 L 1202.570312 158.554688 L 1202.570312 155.945312 L 1205.175781 155.945312 L 1205.175781 153.339844 L 1210.382812 153.339844 L 1210.382812 150.730469 L 1215.589844 150.730469 L 1215.589844 148.125 L 1218.195312 148.125 L 1218.195312 145.515625 L 1220.796875 145.515625 L 1220.796875 142.910156 L 1223.402344 142.910156 L 1223.402344 140.300781 L 1226.003906 140.300781 L 1226.003906 137.695312 L 1228.609375 137.695312 L 1228.609375 135.085938 L 1231.210938 135.085938 L 1231.210938 129.84375 L 1233.816406 129.84375 L 1233.816406 113.867188 L 1231.210938 113.867188 L 1231.210938 111.257812 L 1223.402344 111.257812 L 1223.402344 108.652344 L 1199.605469 108.652344 L 1199.605469 111.257812 L 1189.1875 111.257812 L 1189.1875 113.867188 L 1181.378906 113.867188 L 1181.378906 116.472656 L 1176.171875 116.472656 L 1176.171875 119.078125 L 1170.964844 119.078125 L 1170.964844 121.6875 L 1165.753906 121.6875 L 1165.753906 124.292969 L 1163.152344 124.292969 L 1163.152344 126.902344 L 1157.945312 126.902344 L 1157.945312 129.507812 L 1155.339844 129.507812 L 1155.339844 132.117188 L 1152.738281 132.117188 L 1152.738281 134.722656 L 1147.53125 134.722656 L 1147.53125 137.332031 L 1144.925781 137.332031 L 1144.925781 139.9375 L 1142.320312 139.9375 L 1142.320312 142.546875 L 1139.71875 142.546875 L 1139.71875 145.152344 L 1137.113281 145.152344 L 1137.113281 147.761719 L 1134.511719 147.761719 L 1134.511719 150.367188 L 1131.90625 150.367188 L 1131.90625 152.972656 L 1129.304688 152.972656 L 1129.304688 155.582031 L 1126.699219 155.582031 L 1126.699219 158.1875 L 1124.09375 158.1875 L 1124.09375 163.402344 L 1121.492188 163.402344 L 1121.492188 166.011719 L 1118.886719 166.011719 L 1118.886719 171.226562 L 1116.285156 171.226562 L 1116.285156 179.046875 L 1113.679688 179.046875 L 1113.679688 184.261719 L 1111.078125 184.261719 L 1111.078125 192.082031 L 1108.472656 192.082031 L 1108.472656 221.128906 L 1111.078125 221.128906 L 1111.078125 226.339844 L 1113.679688 226.339844 L 1113.679688 231.554688 L 1116.285156 231.554688 L 1116.285156 234.164062 L 1121.492188 234.164062 L 1121.492188 236.769531 L 1124.09375 236.769531 L 1124.09375 239.378906 L 1134.511719 239.378906 L 1134.511719 241.984375 L 1155.671875 241.984375 L 1155.671875 239.378906 L 1168.691406 239.378906 L 1168.691406 236.769531 L 1176.503906 236.769531 L 1176.503906 234.164062 L 1184.316406 234.164062 L 1184.316406 231.554688 L 1189.523438 231.554688 L 1189.523438 228.949219 L 1194.761719 228.949219 L 1194.761719 226.339844 L 1197.363281 226.339844 L 1197.363281 223.734375 L 1202.570312 223.734375 L 1202.570312 221.128906 L 1207.777344 221.128906 L 1207.777344 218.519531 L 1210.382812 218.519531 L 1210.382812 215.914062 L 1212.984375 215.914062 L 1212.984375 213.304688 L 1218.195312 213.304688 L 1218.195312 210.699219 L 1220.796875 210.699219 L 1220.796875 208.089844 L 1223.402344 208.089844 L 1223.402344 205.484375 L 1226.003906 205.484375 L 1226.003906 202.875 L 1228.609375 202.875 L 1228.609375 200.269531 L 1231.210938 200.269531 L 1231.210938 197.660156 L 1233.816406 197.660156 L 1233.816406 195.054688 L 1236.417969 195.054688 L 1236.417969 192.445312 L 1239.023438 192.445312 L 1239.023438 189.839844 L 1241.628906 189.839844 L 1241.628906 187.234375 L 1244.230469 187.234375 L 1244.230469 184.625 L 1246.835938 184.625 L 1246.835938 182.019531 L 1249.4375 182.019531 L 1249.4375 179.410156 L 1252.042969 179.410156 L 1252.042969 174.195312 L 1254.644531 174.195312 L 1254.644531 171.589844 L 1257.25 171.589844 L 1257.25 168.980469 L 1259.851562 168.980469 L 1259.851562 163.433594 Z M 1202.570312 116.804688 L 1202.570312 114.199219 L 1210.382812 114.199219 L 1210.382812 111.589844 L 1212.652344 111.589844 L 1212.652344 114.199219 L 1217.859375 114.199219 L 1217.859375 116.804688 L 1220.464844 116.804688 L 1220.464844 122.019531 L 1223.066406 122.019531 L 1223.066406 126.902344 L 1220.464844 126.902344 L 1220.464844 132.117188 L 1217.859375 132.117188 L 1217.859375 137.332031 L 1215.257812 137.332031 L 1215.257812 139.9375 L 1212.652344 139.9375 L 1212.652344 142.546875 L 1207.445312 142.546875 L 1207.445312 145.152344 L 1204.84375 145.152344 L 1204.84375 147.761719 L 1202.238281 147.761719 L 1202.238281 150.367188 L 1197.03125 150.367188 L 1197.03125 152.972656 L 1194.425781 152.972656 L 1194.425781 155.582031 L 1189.21875 155.582031 L 1189.21875 158.1875 L 1184.011719 158.1875 L 1184.011719 160.796875 L 1178.804688 160.796875 L 1178.804688 163.402344 L 1173.566406 163.402344 L 1173.566406 166.011719 L 1168.359375 166.011719 L 1168.359375 168.617188 L 1160.546875 168.617188 L 1160.546875 171.226562 L 1155.339844 171.226562 L 1155.339844 173.832031 L 1147.53125 173.832031 L 1147.53125 176.441406 L 1142.65625 176.441406 L 1142.65625 174.167969 L 1145.257812 174.167969 L 1145.257812 171.558594 L 1147.863281 171.558594 L 1147.863281 166.34375 L 1150.464844 166.34375 L 1150.464844 163.738281 L 1153.070312 163.738281 L 1153.070312 161.128906 L 1155.671875 161.128906 L 1155.671875 155.914062 L 1158.277344 155.914062 L 1158.277344 153.308594 L 1160.882812 153.308594 L 1160.882812 150.699219 L 1163.484375 150.699219 L 1163.484375 148.09375 L 1166.089844 148.09375 L 1166.089844 145.484375 L 1168.691406 145.484375 L 1168.691406 142.878906 L 1171.296875 142.878906 L 1171.296875 137.664062 L 1173.898438 137.664062 L 1173.898438 135.058594 L 1176.503906 135.058594 L 1176.503906 132.449219 L 1179.105469 132.449219 L 1179.105469 129.84375 L 1181.710938 129.84375 L 1181.710938 127.234375 L 1186.917969 127.234375 L 1186.917969 124.628906 L 1189.523438 124.628906 L 1189.523438 122.019531 L 1192.125 122.019531 L 1192.125 119.414062 L 1197.332031 119.414062 L 1197.332031 116.804688 C 1197.332031 116.804688 1202.570312 116.804688 1202.570312 116.804688 Z M 1202.570312 116.804688 " fill-opacity="1" fill-rule="nonzero"/></g><g clip-path="url(#92079939c7)"><path fill="#000000" d="M 1455.964844 165.296875 L 1455.964844 168.523438 L 1452.738281 168.523438 L 1452.738281 174.972656 L 1449.511719 174.972656 L 1449.511719 178.199219 L 1446.285156 178.199219 L 1446.285156 181.425781 L 1443.058594 181.425781 L 1443.058594 184.652344 L 1439.832031 184.652344 L 1439.832031 187.875 L 1436.605469 187.875 L 1436.605469 191.101562 L 1433.378906 191.101562 L 1433.378906 194.328125 L 1430.152344 194.328125 L 1430.152344 200.777344 L 1426.925781 200.777344 L 1426.925781 204.003906 L 1420.472656 204.003906 L 1420.472656 207.230469 L 1417.246094 207.230469 L 1417.246094 210.457031 L 1414.015625 210.457031 L 1414.015625 213.679688 L 1410.789062 213.679688 L 1410.789062 216.90625 L 1407.5625 216.90625 L 1407.5625 220.132812 L 1404.335938 220.132812 L 1404.335938 223.359375 L 1397.882812 223.359375 L 1397.882812 226.582031 L 1391.429688 226.582031 L 1391.429688 229.808594 L 1388.203125 229.808594 L 1388.203125 233.035156 L 1378.476562 233.035156 L 1378.476562 236.261719 L 1353.214844 236.261719 L 1353.214844 233.035156 L 1349.988281 233.035156 L 1349.988281 230.40625 L 1353.214844 230.40625 L 1353.214844 227.183594 L 1356.441406 227.183594 L 1356.441406 223.957031 L 1359.667969 223.957031 L 1359.667969 217.503906 L 1362.894531 217.503906 L 1362.894531 214.28125 L 1366.125 214.28125 L 1366.125 211.054688 L 1369.351562 211.054688 L 1369.351562 207.828125 L 1372.578125 207.828125 L 1372.578125 204.601562 L 1375.804688 204.601562 L 1375.804688 201.378906 L 1379.03125 201.378906 L 1379.03125 198.152344 L 1382.257812 198.152344 L 1382.257812 194.925781 L 1385.484375 194.925781 L 1385.484375 191.699219 L 1388.710938 191.699219 L 1388.710938 185.25 L 1391.9375 185.25 L 1391.9375 182.023438 L 1395.164062 182.023438 L 1395.164062 178.796875 L 1398.390625 178.796875 L 1398.390625 175.574219 L 1401.617188 175.574219 L 1401.617188 169.121094 L 1404.84375 169.121094 L 1404.84375 165.894531 L 1408.070312 165.894531 L 1408.070312 159.445312 L 1411.296875 159.445312 L 1411.296875 152.992188 L 1414.523438 152.992188 L 1414.523438 146.542969 L 1417.75 146.542969 L 1417.75 136.773438 L 1420.976562 136.773438 L 1420.976562 120 L 1417.75 120 L 1417.75 116.773438 L 1414.523438 116.773438 L 1414.523438 113.503906 L 1411.296875 113.503906 L 1411.296875 110.277344 L 1384.792969 110.277344 L 1384.792969 113.503906 L 1375.019531 113.503906 L 1375.019531 116.726562 L 1368.566406 116.726562 L 1368.566406 119.953125 L 1365.339844 119.953125 L 1365.339844 123.179688 L 1362.113281 123.179688 L 1362.113281 126.40625 L 1355.660156 126.40625 L 1355.660156 129.628906 L 1352.433594 129.628906 L 1352.433594 132.855469 L 1349.207031 132.855469 L 1349.207031 136.082031 L 1345.980469 136.082031 L 1345.980469 139.308594 L 1342.753906 139.308594 L 1342.753906 142.535156 L 1339.527344 142.535156 L 1339.527344 145.757812 L 1336.296875 145.757812 L 1336.296875 148.984375 L 1333.070312 148.984375 L 1333.070312 152.210938 L 1329.84375 152.210938 L 1329.84375 155.4375 L 1326.617188 155.4375 L 1326.617188 158.660156 L 1323.390625 158.660156 L 1323.390625 161.886719 L 1320.164062 161.886719 L 1320.164062 165.113281 L 1316.9375 165.113281 L 1316.9375 168.339844 L 1313.710938 168.339844 L 1313.710938 171.5625 L 1310.484375 171.5625 L 1310.484375 174.789062 L 1307.257812 174.789062 L 1307.257812 178.015625 L 1304.03125 178.015625 L 1304.03125 181.242188 L 1300.804688 181.242188 L 1300.804688 184.464844 L 1297.578125 184.464844 L 1297.578125 187.691406 L 1294.351562 187.691406 L 1294.351562 190.917969 L 1291.722656 190.917969 L 1291.722656 185.066406 L 1294.949219 185.066406 L 1294.949219 181.839844 L 1298.175781 181.839844 L 1298.175781 175.386719 L 1301.402344 175.386719 L 1301.402344 172.164062 L 1304.628906 172.164062 L 1304.628906 168.9375 L 1307.855469 168.9375 L 1307.855469 162.484375 L 1311.082031 162.484375 L 1311.082031 159.261719 L 1314.3125 159.261719 L 1314.3125 156.035156 L 1317.539062 156.035156 L 1317.539062 149.582031 L 1320.765625 149.582031 L 1320.765625 146.359375 L 1323.992188 146.359375 L 1323.992188 139.90625 L 1327.21875 139.90625 L 1327.21875 136.679688 L 1330.445312 136.679688 L 1330.445312 113.503906 L 1327.21875 113.503906 L 1327.21875 110.277344 L 1307.164062 110.277344 L 1307.164062 113.503906 L 1300.710938 113.503906 L 1300.710938 116.726562 L 1297.484375 116.726562 L 1297.484375 119.953125 L 1294.257812 119.953125 L 1294.257812 123.179688 L 1291.03125 123.179688 L 1291.03125 126.40625 L 1287.804688 126.40625 L 1287.804688 129.628906 L 1284.578125 129.628906 L 1284.578125 132.855469 L 1281.351562 132.855469 L 1281.351562 136.082031 L 1278.125 136.082031 L 1278.125 139.308594 L 1274.898438 139.308594 L 1274.898438 142.535156 L 1271.671875 142.535156 L 1271.671875 148.984375 L 1268.445312 148.984375 L 1268.445312 152.210938 L 1265.21875 152.210938 L 1265.21875 155.4375 L 1261.992188 155.4375 L 1261.992188 158.660156 L 1258.765625 158.660156 L 1258.765625 165.757812 L 1265.863281 165.757812 L 1265.863281 159.304688 L 1269.089844 159.304688 L 1269.089844 156.082031 L 1272.316406 156.082031 L 1272.316406 152.855469 L 1275.542969 152.855469 L 1275.542969 149.628906 L 1278.769531 149.628906 L 1278.769531 143.179688 L 1281.996094 143.179688 L 1281.996094 139.953125 L 1285.222656 139.953125 L 1285.222656 136.726562 L 1288.449219 136.726562 L 1288.449219 133.5 L 1291.675781 133.5 L 1291.675781 130.277344 L 1294.902344 130.277344 L 1294.902344 127.050781 L 1298.128906 127.050781 L 1298.128906 123.824219 L 1301.359375 123.824219 L 1301.359375 120.597656 L 1304.585938 120.597656 L 1304.585938 117.375 L 1313.664062 117.375 L 1313.664062 126.453125 L 1310.4375 126.453125 L 1310.4375 129.675781 L 1307.210938 129.675781 L 1307.210938 136.128906 L 1303.984375 136.128906 L 1303.984375 139.355469 L 1300.757812 139.355469 L 1300.757812 145.804688 L 1297.53125 145.804688 L 1297.53125 149.03125 L 1294.304688 149.03125 L 1294.304688 155.480469 L 1291.078125 155.480469 L 1291.078125 158.707031 L 1287.851562 158.707031 L 1287.851562 161.933594 L 1284.625 161.933594 L 1284.625 168.382812 L 1281.398438 168.382812 L 1281.398438 171.609375 L 1278.171875 171.609375 L 1278.171875 178.0625 L 1274.945312 178.0625 L 1274.945312 181.285156 L 1271.71875 181.285156 L 1271.71875 187.738281 L 1268.492188 187.738281 L 1268.492188 190.964844 L 1265.265625 190.964844 L 1265.265625 194.1875 L 1262.039062 194.1875 L 1262.039062 200.640625 L 1258.808594 200.640625 L 1258.808594 203.867188 L 1255.582031 203.867188 L 1255.582031 210.316406 L 1252.355469 210.316406 L 1252.355469 213.542969 L 1249.128906 213.542969 L 1249.128906 219.992188 L 1245.902344 219.992188 L 1245.902344 223.21875 L 1242.675781 223.21875 L 1242.675781 226.445312 L 1239.449219 226.445312 L 1239.449219 232.898438 L 1235.808594 232.898438 L 1235.808594 236.121094 L 1232.582031 236.121094 L 1232.582031 239.992188 L 1239.679688 239.992188 L 1239.679688 236.765625 L 1265.585938 236.765625 L 1265.585938 233.542969 L 1268.8125 233.542969 L 1268.8125 230.316406 L 1272.039062 230.316406 L 1272.039062 223.863281 L 1275.265625 223.863281 L 1275.265625 220.640625 L 1278.492188 220.640625 L 1278.492188 217.414062 L 1281.71875 217.414062 L 1281.71875 214.1875 L 1284.945312 214.1875 L 1284.945312 207.738281 L 1288.175781 207.738281 L 1288.175781 204.511719 L 1291.402344 204.511719 L 1291.402344 201.285156 L 1294.628906 201.285156 L 1294.628906 198.058594 L 1297.855469 198.058594 L 1297.855469 194.835938 L 1301.082031 194.835938 L 1301.082031 188.382812 L 1304.308594 188.382812 L 1304.308594 185.15625 L 1307.535156 185.15625 L 1307.535156 181.933594 L 1310.761719 181.933594 L 1310.761719 178.707031 L 1313.988281 178.707031 L 1313.988281 175.480469 L 1317.214844 175.480469 L 1317.214844 172.253906 L 1320.441406 172.253906 L 1320.441406 169.03125 L 1323.667969 169.03125 L 1323.667969 165.804688 L 1326.894531 165.804688 L 1326.894531 162.578125 L 1330.121094 162.578125 L 1330.121094 159.351562 L 1333.347656 159.351562 L 1333.347656 156.125 L 1336.574219 156.125 L 1336.574219 152.902344 L 1339.800781 152.902344 L 1339.800781 149.675781 L 1343.027344 149.675781 L 1343.027344 146.449219 L 1346.253906 146.449219 L 1346.253906 143.222656 L 1349.480469 143.222656 L 1349.480469 140 L 1352.710938 140 L 1352.710938 136.773438 L 1359.164062 136.773438 L 1359.164062 133.546875 L 1362.390625 133.546875 L 1362.390625 130.320312 L 1365.617188 130.320312 L 1365.617188 127.097656 L 1372.070312 127.097656 L 1372.070312 123.871094 L 1375.296875 123.871094 L 1375.296875 120.644531 L 1381.75 120.644531 L 1381.75 117.417969 L 1388.203125 117.417969 L 1388.203125 114.195312 L 1400.558594 114.195312 L 1400.558594 117.417969 L 1403.785156 117.417969 L 1403.785156 129.769531 L 1400.558594 129.769531 L 1400.558594 136.21875 L 1397.332031 136.21875 L 1397.332031 139.445312 L 1394.105469 139.445312 L 1394.105469 142.671875 L 1390.875 142.671875 L 1390.875 149.121094 L 1387.648438 149.121094 L 1387.648438 152.347656 L 1384.421875 152.347656 L 1384.421875 155.574219 L 1381.195312 155.574219 L 1381.195312 158.800781 L 1377.96875 158.800781 L 1377.96875 162.023438 L 1374.742188 162.023438 L 1374.742188 165.25 L 1371.515625 165.25 L 1371.515625 171.703125 L 1368.289062 171.703125 L 1368.289062 174.925781 L 1365.0625 174.925781 L 1365.0625 178.152344 L 1361.835938 178.152344 L 1361.835938 181.378906 L 1358.609375 181.378906 L 1358.609375 184.605469 L 1355.382812 184.605469 L 1355.382812 191.054688 L 1352.15625 191.054688 L 1352.15625 194.28125 L 1348.929688 194.28125 L 1348.929688 197.507812 L 1345.703125 197.507812 L 1345.703125 203.957031 L 1342.476562 203.957031 L 1342.476562 210.410156 L 1339.25 210.410156 L 1339.25 220.132812 L 1336.023438 220.132812 L 1336.023438 233.679688 L 1339.25 233.679688 L 1339.25 236.90625 L 1342.476562 236.90625 L 1342.476562 240.132812 L 1352.203125 240.132812 L 1352.203125 243.355469 L 1375.480469 243.355469 L 1375.480469 240.132812 L 1385.207031 240.132812 L 1385.207031 236.90625 L 1391.660156 236.90625 L 1391.660156 233.679688 L 1398.113281 233.679688 L 1398.113281 230.453125 L 1401.339844 230.453125 L 1401.339844 227.230469 L 1407.792969 227.230469 L 1407.792969 224.003906 L 1411.019531 224.003906 L 1411.019531 220.777344 L 1414.246094 220.777344 L 1414.246094 217.550781 L 1420.703125 217.550781 L 1420.703125 214.328125 L 1423.929688 214.328125 L 1423.929688 211.101562 L 1427.15625 211.101562 L 1427.15625 207.875 L 1430.382812 207.875 L 1430.382812 204.648438 L 1433.609375 204.648438 L 1433.609375 201.421875 L 1436.835938 201.421875 L 1436.835938 198.199219 L 1440.0625 198.199219 L 1440.0625 194.972656 L 1443.289062 194.972656 L 1443.289062 191.746094 L 1446.515625 191.746094 L 1446.515625 185.296875 L 1449.742188 185.296875 L 1449.742188 182.070312 L 1452.96875 182.070312 L 1452.96875 178.84375 L 1456.195312 178.84375 L 1456.195312 175.617188 L 1459.421875 175.617188 L 1459.421875 172.394531 L 1462.648438 172.394531 L 1462.648438 165.296875 Z M 1284.394531 198.289062 L 1284.394531 200.917969 L 1281.765625 200.917969 L 1281.765625 198.289062 Z M 1287.621094 195.019531 L 1287.621094 197.644531 L 1284.992188 197.644531 L 1284.992188 195.019531 Z M 1288.21875 194.417969 L 1288.21875 191.792969 L 1290.847656 191.792969 L 1290.847656 194.417969 Z M 1288.21875 194.417969 " fill-opacity="1" fill-rule="nonzero"/></g><g clip-path="url(#eac86420d0)"><path fill="#000000" d="M 1596.800781 149.144531 L 1596.800781 152.507812 L 1593.433594 152.507812 L 1593.433594 155.867188 L 1590.070312 155.867188 L 1590.070312 159.230469 L 1586.707031 159.230469 L 1586.707031 162.59375 L 1583.34375 162.59375 L 1583.34375 165.953125 L 1579.054688 165.953125 L 1579.054688 172.722656 L 1573.203125 172.722656 L 1573.203125 176.085938 L 1569.839844 176.085938 L 1569.839844 179.449219 L 1566.472656 179.449219 L 1566.472656 182.8125 L 1562.925781 182.8125 L 1562.925781 186.171875 L 1559.5625 186.171875 L 1559.5625 189.535156 L 1556.195312 189.535156 L 1556.195312 192.898438 L 1549.421875 192.898438 L 1549.421875 196.257812 L 1546.058594 196.257812 L 1546.058594 199.621094 L 1542.691406 199.621094 L 1542.691406 202.984375 L 1535.917969 202.984375 L 1535.917969 206.34375 L 1532.554688 206.34375 L 1532.554688 209.707031 L 1525.777344 209.707031 L 1525.777344 213.070312 L 1522.414062 213.070312 L 1522.414062 216.429688 L 1515.640625 216.429688 L 1515.640625 219.792969 L 1508.863281 219.792969 L 1508.863281 223.15625 L 1505.683594 223.15625 L 1505.683594 216.570312 L 1509.050781 216.570312 L 1509.050781 213.207031 L 1512.414062 213.207031 L 1512.414062 209.84375 L 1515.777344 209.84375 L 1515.777344 206.484375 L 1519.140625 206.484375 L 1519.140625 199.714844 L 1522.507812 199.714844 L 1522.507812 196.671875 L 1525.871094 196.671875 L 1525.871094 193.3125 L 1529.234375 193.3125 L 1529.234375 186.542969 L 1532.601562 186.542969 L 1532.601562 183.179688 L 1535.964844 183.179688 L 1535.964844 179.816406 L 1539.328125 179.816406 L 1539.328125 176.453125 L 1542.691406 176.453125 L 1542.691406 169.683594 L 1546.058594 169.683594 L 1546.058594 166.324219 L 1549.421875 166.324219 L 1549.421875 162.960938 L 1552.785156 162.960938 L 1552.785156 156.191406 L 1556.152344 156.191406 L 1556.152344 152.828125 L 1559.515625 152.828125 L 1559.515625 149.464844 L 1562.878906 149.464844 L 1562.878906 146.105469 L 1566.242188 146.105469 L 1566.242188 139.148438 L 1569.609375 139.148438 L 1569.609375 135.789062 L 1572.972656 135.789062 L 1572.972656 132.425781 L 1576.335938 132.425781 L 1576.335938 125.609375 L 1579.699219 125.609375 L 1579.699219 122.246094 L 1583.066406 122.246094 L 1583.066406 118.839844 L 1586.429688 118.839844 L 1586.429688 115.476562 L 1589.792969 115.476562 L 1589.792969 112.070312 L 1566.105469 112.070312 L 1566.105469 118.839844 L 1562.742188 118.839844 L 1562.742188 122.203125 L 1559.375 122.203125 L 1559.375 115.476562 L 1556.011719 115.476562 L 1556.011719 112.070312 L 1549.558594 112.070312 L 1549.558594 108.707031 L 1522.460938 108.707031 L 1522.460938 112.070312 L 1512.320312 112.070312 L 1512.320312 115.433594 L 1505.546875 115.433594 L 1505.546875 118.839844 L 1498.773438 118.839844 L 1498.773438 122.203125 L 1495.40625 122.203125 L 1495.40625 125.5625 L 1492.042969 125.5625 L 1492.042969 128.925781 L 1488.679688 128.925781 L 1488.679688 132.289062 L 1481.902344 132.289062 L 1481.902344 135.648438 L 1478.539062 135.648438 L 1478.539062 142.421875 L 1475.175781 142.421875 L 1475.175781 145.78125 L 1471.8125 145.78125 L 1471.8125 149.144531 L 1468.445312 149.144531 L 1468.445312 152.507812 L 1465.082031 152.507812 L 1465.082031 159.277344 L 1461.535156 159.277344 L 1461.535156 166.046875 L 1458.167969 166.046875 L 1458.167969 176.179688 L 1454.804688 176.179688 L 1454.804688 193.082031 L 1458.167969 193.082031 L 1458.167969 199.851562 L 1461.535156 199.851562 L 1461.535156 203.214844 L 1468.308594 203.214844 L 1468.308594 206.574219 L 1481.859375 206.574219 L 1481.859375 203.214844 L 1488.632812 203.214844 L 1488.632812 199.851562 L 1495.40625 199.851562 L 1495.40625 196.671875 L 1498.773438 196.671875 L 1498.773438 193.3125 L 1505.546875 193.3125 L 1505.546875 189.949219 L 1508.910156 189.949219 L 1508.910156 186.542969 L 1512.273438 186.542969 L 1512.273438 183.179688 L 1515.640625 183.179688 L 1515.640625 179.816406 L 1519.003906 179.816406 L 1519.003906 176.453125 L 1522.367188 176.453125 L 1522.367188 179.816406 L 1519.003906 179.816406 L 1519.003906 183.179688 L 1515.640625 183.179688 L 1515.640625 186.542969 L 1512.273438 186.542969 L 1512.273438 193.3125 L 1508.910156 193.3125 L 1508.910156 196.671875 L 1505.546875 196.671875 L 1505.546875 200.035156 L 1502.183594 200.035156 L 1502.183594 206.804688 L 1498.816406 206.804688 L 1498.816406 210.167969 L 1495.453125 210.167969 L 1495.453125 213.53125 L 1492.089844 213.53125 L 1492.089844 216.890625 L 1488.726562 216.890625 L 1488.726562 220.253906 L 1485.359375 220.253906 L 1485.359375 227.023438 L 1481.996094 227.023438 L 1481.996094 230.386719 L 1478.632812 230.386719 L 1478.632812 233.746094 L 1475.265625 233.746094 L 1475.265625 237.109375 L 1468.492188 237.109375 L 1468.492188 240.472656 L 1461.535156 240.472656 L 1461.535156 243.832031 L 1454.757812 243.832031 L 1454.757812 247.195312 L 1447.984375 247.195312 L 1447.984375 250.558594 L 1441.207031 250.558594 L 1441.207031 253.921875 L 1434.433594 253.921875 L 1434.433594 257.28125 L 1427.660156 257.28125 L 1427.660156 260.644531 L 1420.882812 260.644531 L 1420.882812 264.007812 L 1414.15625 264.007812 L 1414.15625 267.367188 L 1407.378906 267.367188 L 1407.378906 270.730469 L 1404.015625 270.730469 L 1404.015625 274.09375 L 1397.195312 274.09375 L 1397.195312 277.453125 L 1393.832031 277.453125 L 1393.832031 280.816406 L 1390.464844 280.816406 L 1390.464844 283.992188 L 1386.871094 283.992188 L 1386.871094 287.585938 L 1380.28125 287.585938 L 1380.28125 294.355469 L 1376.871094 294.355469 L 1376.871094 301.125 L 1373.507812 301.125 L 1373.507812 307.898438 L 1376.871094 307.898438 L 1376.871094 311.257812 L 1380.234375 311.257812 L 1380.234375 314.621094 L 1410.699219 314.621094 L 1410.699219 311.257812 L 1417.472656 311.257812 L 1417.472656 307.898438 L 1424.25 307.898438 L 1424.25 304.535156 L 1427.613281 304.535156 L 1427.613281 301.171875 L 1434.386719 301.171875 L 1434.386719 297.8125 L 1437.753906 297.8125 L 1437.753906 294.449219 L 1441.117188 294.449219 L 1441.117188 291.085938 L 1444.480469 291.085938 L 1444.480469 287.722656 L 1447.84375 287.722656 L 1447.84375 284.640625 L 1451.210938 284.640625 L 1451.210938 281.277344 L 1454.574219 281.277344 L 1454.574219 277.914062 L 1457.9375 277.914062 L 1457.9375 274.507812 L 1461.304688 274.507812 L 1461.304688 271.144531 L 1464.667969 271.144531 L 1464.667969 267.78125 L 1468.03125 267.78125 L 1468.03125 264.375 L 1471.394531 264.375 L 1471.394531 257.605469 L 1474.761719 257.605469 L 1474.761719 254.242188 L 1478.125 254.242188 L 1478.125 250.878906 L 1481.488281 250.878906 L 1481.488281 247.519531 L 1484.851562 247.519531 L 1484.851562 244.15625 L 1488.21875 244.15625 L 1488.21875 240.792969 L 1491.582031 240.792969 L 1491.582031 234.023438 L 1501.722656 234.023438 L 1501.722656 230.664062 L 1505.085938 230.664062 L 1505.085938 227.484375 L 1512.046875 227.484375 L 1512.046875 224.121094 L 1518.820312 224.121094 L 1518.820312 220.761719 L 1526.054688 220.761719 L 1526.054688 217.398438 L 1529.417969 217.398438 L 1529.417969 214.035156 L 1536.195312 214.035156 L 1536.195312 210.675781 L 1539.558594 210.675781 L 1539.558594 207.3125 L 1546.332031 207.3125 L 1546.332031 203.949219 L 1549.699219 203.949219 L 1549.699219 200.589844 L 1553.0625 200.589844 L 1553.0625 197.226562 L 1559.835938 197.226562 L 1559.835938 193.863281 L 1563.203125 193.863281 L 1563.203125 190.5 L 1566.566406 190.5 L 1566.566406 187.140625 L 1569.929688 187.140625 L 1569.929688 183.316406 L 1573.296875 183.316406 L 1573.296875 179.957031 L 1576.660156 179.957031 L 1576.660156 176.59375 L 1580.023438 176.59375 L 1580.023438 173.183594 L 1583.386719 173.183594 L 1583.386719 169.824219 L 1586.753906 169.824219 L 1586.753906 166.460938 L 1590.117188 166.460938 L 1590.117188 163.054688 L 1593.480469 163.054688 L 1593.480469 159.691406 L 1596.84375 159.691406 L 1596.84375 156.328125 L 1600.210938 156.328125 L 1600.210938 152.96875 L 1603.574219 152.96875 L 1603.574219 149.191406 L 1596.800781 149.191406 Z M 1519.097656 169.59375 L 1519.097656 172.953125 L 1515.730469 172.953125 L 1515.730469 176.316406 L 1512.367188 176.316406 L 1512.367188 179.679688 L 1509.003906 179.679688 L 1509.003906 183.039062 L 1505.640625 183.039062 L 1505.640625 186.402344 L 1502.273438 186.402344 L 1502.273438 189.765625 L 1495.5 189.765625 L 1495.5 193.128906 L 1492.136719 193.128906 L 1492.136719 196.488281 L 1485.359375 196.488281 L 1485.359375 199.851562 L 1468.445312 199.851562 L 1468.445312 182.949219 L 1471.8125 182.949219 L 1471.8125 176.179688 L 1475.175781 176.179688 L 1475.175781 169.410156 L 1478.539062 169.410156 L 1478.539062 166.046875 L 1481.902344 166.046875 L 1481.902344 159.277344 L 1485.269531 159.277344 L 1485.269531 155.914062 L 1488.632812 155.914062 L 1488.632812 152.550781 L 1491.996094 152.550781 L 1491.996094 149.191406 L 1495.363281 149.191406 L 1495.363281 145.828125 L 1498.726562 145.828125 L 1498.726562 142.464844 L 1502.089844 142.464844 L 1502.089844 135.789062 L 1508.863281 135.789062 L 1508.863281 132.425781 L 1512.230469 132.425781 L 1512.230469 129.0625 L 1515.59375 129.0625 L 1515.59375 125.703125 L 1518.957031 125.703125 L 1518.957031 122.339844 L 1525.734375 122.339844 L 1525.734375 118.839844 L 1532.507812 118.839844 L 1532.507812 115.476562 L 1552.832031 115.476562 L 1552.832031 132.378906 L 1549.558594 132.378906 L 1549.558594 139.148438 L 1546.195312 139.148438 L 1546.195312 142.511719 L 1542.832031 142.511719 L 1542.832031 149.28125 L 1539.421875 149.28125 L 1539.421875 152.644531 L 1536.054688 152.644531 L 1536.054688 156.007812 L 1532.691406 156.007812 L 1532.691406 159.367188 L 1529.28125 159.367188 L 1529.28125 162.730469 L 1525.917969 162.730469 L 1525.917969 166.09375 L 1522.554688 166.09375 L 1522.554688 169.453125 L 1519.097656 169.453125 Z M 1464.945312 250.835938 L 1461.535156 250.835938 L 1461.535156 254.195312 L 1458.167969 254.195312 L 1458.167969 257.558594 L 1454.804688 257.558594 L 1454.804688 264.375 L 1451.394531 264.375 L 1451.394531 267.738281 L 1448.03125 267.738281 L 1448.03125 271.097656 L 1444.664062 271.097656 L 1444.664062 274.460938 L 1441.300781 274.460938 L 1441.300781 277.824219 L 1437.9375 277.824219 L 1437.9375 281.183594 L 1434.570312 281.183594 L 1434.570312 284.546875 L 1431.207031 284.546875 L 1431.207031 287.910156 L 1427.84375 287.910156 L 1427.84375 291.269531 L 1424.480469 291.269531 L 1424.480469 294.632812 L 1421.113281 294.632812 L 1421.113281 297.996094 L 1417.75 297.996094 L 1417.75 301.355469 L 1414.386719 301.355469 L 1414.386719 304.71875 L 1407.378906 304.71875 L 1407.378906 308.082031 L 1397.242188 308.082031 L 1397.242188 311.441406 L 1383.644531 311.441406 L 1383.644531 308.082031 L 1380.28125 308.082031 L 1380.28125 297.949219 L 1383.644531 297.949219 L 1383.644531 291.179688 L 1387.011719 291.179688 L 1387.011719 288 L 1390.605469 288 L 1390.605469 284.640625 L 1397.195312 284.640625 L 1397.195312 281.277344 L 1400.558594 281.277344 L 1400.558594 277.914062 L 1407.335938 277.914062 L 1407.335938 274.507812 L 1410.699219 274.507812 L 1410.699219 271.144531 L 1417.472656 271.144531 L 1417.472656 267.78125 L 1424.25 267.78125 L 1424.25 264.375 L 1431.023438 264.375 L 1431.023438 261.011719 L 1437.796875 261.011719 L 1437.796875 257.652344 L 1444.574219 257.652344 L 1444.574219 254.289062 L 1451.394531 254.289062 L 1451.394531 250.925781 L 1458.167969 250.925781 L 1458.167969 247.5625 L 1464.945312 247.5625 Z M 1502.183594 223.753906 L 1505.363281 223.753906 L 1505.363281 227.117188 L 1502.183594 227.117188 Z M 1502.183594 223.753906 " fill-opacity="1" fill-rule="nonzero"/></g><g clip-path="url(#a0fb9d7776)"><path fill="#000000" d="M 388.691406 0.078125 L 388.691406 5.4375 L 383.253906 5.4375 L 383.253906 10.871094 L 377.890625 10.871094 L 377.890625 16.230469 L 372.53125 16.230469 L 372.53125 21.585938 L 361.730469 21.585938 L 361.730469 27.023438 L 340.128906 27.023438 L 340.128906 32.382812 L 313.875 32.382812 L 313.875 27.023438 L 281.550781 27.023438 L 281.550781 21.585938 L 210.835938 21.585938 L 210.835938 27.023438 L 183.871094 27.023438 L 183.871094 32.382812 L 173.070312 32.382812 L 173.070312 37.816406 L 162.269531 37.816406 L 162.269531 43.175781 L 151.46875 43.175781 L 151.46875 48.535156 L 146.109375 48.535156 L 146.109375 53.96875 L 135.308594 53.96875 L 135.308594 59.328125 L 129.949219 59.328125 L 129.949219 64.683594 L 124.585938 64.683594 L 124.585938 70.121094 L 119.148438 70.121094 L 119.148438 80.917969 L 113.785156 80.917969 L 113.785156 86.273438 L 108.347656 86.273438 L 108.347656 113.929688 L 113.785156 113.929688 L 113.785156 119.285156 L 119.148438 119.285156 L 119.148438 124.644531 L 124.585938 124.644531 L 124.585938 130.082031 L 152.179688 130.082031 L 152.179688 124.644531 L 162.980469 124.644531 L 162.980469 119.285156 L 173.78125 119.285156 L 173.78125 113.929688 L 179.140625 113.929688 L 179.140625 108.492188 L 184.503906 108.492188 L 184.503906 103.132812 L 189.941406 103.132812 L 189.941406 97.777344 L 195.304688 97.777344 L 195.304688 92.339844 L 200.742188 92.339844 L 200.742188 86.984375 L 206.105469 86.984375 L 206.105469 76.1875 L 211.464844 76.1875 L 211.464844 60.035156 L 216.90625 60.035156 L 216.90625 48.535156 L 205.394531 48.535156 L 205.394531 64.683594 L 200.035156 64.683594 L 200.035156 70.121094 L 194.59375 70.121094 L 194.59375 80.917969 L 189.234375 80.917969 L 189.234375 86.273438 L 183.871094 86.273438 L 183.871094 91.632812 L 178.433594 91.632812 L 178.433594 97.066406 L 173.070312 97.066406 L 173.070312 102.425781 L 167.710938 102.425781 L 167.710938 107.785156 L 162.269531 107.785156 L 162.269531 113.21875 L 151.46875 113.21875 L 151.46875 118.578125 L 119.855469 118.578125 L 119.855469 113.21875 L 114.496094 113.21875 L 114.496094 92.339844 L 119.855469 92.339844 L 119.855469 81.546875 L 125.21875 81.546875 L 125.21875 76.1875 L 130.65625 76.1875 L 130.65625 70.832031 L 136.019531 70.832031 L 136.019531 65.394531 L 141.457031 65.394531 L 141.457031 60.035156 L 146.820312 60.035156 L 146.820312 54.679688 L 157.621094 54.679688 L 157.621094 49.242188 L 168.339844 49.242188 L 168.339844 43.886719 L 179.140625 43.886719 L 179.140625 38.449219 L 248.519531 38.449219 L 248.519531 43.886719 L 280.84375 43.886719 L 280.84375 49.242188 L 319.316406 49.242188 L 319.316406 43.886719 L 340.839844 43.886719 L 340.839844 38.449219 L 357 38.449219 L 357 33.089844 L 367.800781 33.089844 L 367.800781 27.734375 L 373.238281 27.734375 L 373.238281 22.296875 L 383.960938 22.296875 L 383.960938 16.9375 L 389.402344 16.9375 L 389.402344 11.582031 L 394.761719 11.582031 L 394.761719 0.078125 Z M 388.691406 0.078125 " fill-opacity="1" fill-rule="nonzero"/></g><g clip-path="url(#065123a9d9)"><path fill="#000000" d="M 270.121094 59.328125 L 259.320312 59.328125 L 259.320312 64.683594 L 253.957031 64.683594 L 253.957031 70.042969 L 248.597656 70.042969 L 248.597656 75.402344 L 243.238281 75.402344 L 243.238281 80.757812 L 232.355469 80.757812 L 232.355469 86.117188 L 226.996094 86.117188 L 226.996094 91.472656 L 221.636719 91.472656 L 221.636719 96.832031 L 216.273438 96.832031 L 216.273438 102.1875 L 210.914062 102.1875 L 210.914062 107.546875 L 205.550781 107.546875 L 205.550781 112.90625 L 200.035156 112.90625 L 200.035156 118.261719 L 194.671875 118.261719 L 194.671875 129.054688 L 189.3125 129.054688 L 189.3125 134.414062 L 183.949219 134.414062 L 183.949219 139.773438 L 178.589844 139.773438 L 178.589844 145.128906 L 173.230469 145.128906 L 173.230469 150.488281 L 167.710938 150.488281 L 167.710938 161.28125 L 162.351562 161.28125 L 162.351562 166.640625 L 156.988281 166.640625 L 156.988281 171.996094 L 151.628906 171.996094 L 151.628906 182.789062 L 146.265625 182.789062 L 146.265625 188.148438 L 140.90625 188.148438 L 140.90625 199.414062 L 135.542969 199.414062 L 135.542969 204.773438 L 130.183594 204.773438 L 130.183594 210.128906 L 124.824219 210.128906 L 124.824219 215.488281 L 119.460938 215.488281 L 119.460938 220.847656 L 114.101562 220.847656 L 114.101562 226.203125 L 108.738281 226.203125 L 108.738281 231.5625 L 103.378906 231.5625 L 103.378906 236.917969 L 92.578125 236.917969 L 92.578125 242.277344 L 81.777344 242.277344 L 81.777344 247.632812 L 70.660156 247.632812 L 70.660156 252.992188 L 22.808594 252.992188 L 22.808594 247.632812 L 12.085938 247.632812 L 12.085938 237.550781 L 17.445312 237.550781 L 17.445312 232.191406 L 22.808594 232.191406 L 22.808594 226.992188 L 28.167969 226.992188 L 28.167969 220.925781 L 22.808594 220.925781 L 22.808594 215.566406 L 5.9375 215.566406 L 5.9375 220.925781 L 0.574219 220.925781 L 0.574219 243.144531 L 5.9375 243.144531 L 5.9375 248.5 L 11.296875 248.5 L 11.296875 253.859375 L 16.65625 253.859375 L 16.65625 259.214844 L 82.015625 259.214844 L 82.015625 253.859375 L 92.816406 253.859375 L 92.816406 248.5 L 103.617188 248.5 L 103.617188 243.144531 L 114.417969 243.144531 L 114.417969 237.785156 L 119.777344 237.785156 L 119.777344 232.429688 L 130.65625 232.429688 L 130.65625 226.992188 L 136.019531 226.992188 L 136.019531 221.632812 L 141.378906 221.632812 L 141.378906 216.277344 L 146.738281 216.277344 L 146.738281 210.917969 L 152.101562 210.917969 L 152.101562 205.5625 L 157.460938 205.5625 L 157.460938 200.203125 L 162.824219 200.203125 L 162.824219 194.6875 L 168.183594 194.6875 L 168.183594 189.332031 L 173.542969 189.332031 L 173.542969 183.972656 L 178.90625 183.972656 L 178.90625 178.613281 L 184.265625 178.613281 L 184.265625 167.820312 L 189.628906 167.820312 L 189.628906 162.382812 L 194.988281 162.382812 L 194.988281 157.027344 L 200.347656 157.027344 L 200.347656 146.234375 L 205.710938 146.234375 L 205.710938 140.875 L 211.070312 140.875 L 211.070312 130.082031 L 216.433594 130.082031 L 216.433594 124.722656 L 221.792969 124.722656 L 221.792969 113.929688 L 227.152344 113.929688 L 227.152344 108.570312 L 232.515625 108.570312 L 232.515625 97.777344 L 237.875 97.777344 L 237.875 92.417969 L 243.238281 92.417969 L 243.238281 87.0625 L 248.597656 87.0625 L 248.597656 81.703125 L 253.957031 81.703125 L 253.957031 76.347656 L 259.320312 76.347656 L 259.320312 70.988281 L 264.679688 70.988281 L 264.679688 65.632812 L 270.042969 65.632812 L 270.042969 60.273438 L 275.402344 60.273438 L 275.402344 54.207031 L 269.332031 54.207031 L 269.332031 59.328125 Z M 11.375 232.429688 L 11.375 237.15625 L 6.644531 237.15625 L 6.644531 232.429688 Z M 11.375 232.429688 " fill-opacity="1" fill-rule="nonzero"/></g></svg>